Coordinates
version=1
nRows=10
nColumns=27
inDegrees=yes

Units are S.I. units (second, meters, Newtons, ...)
If the header above contains a line with 'inDegrees', this indicates whether rotational values are in degrees (yes) or radians (no).

endheader
time	pelvis_rotation	pelvis_tilt	pelvis_list	pelvis_tx	pelvis_ty	pelvis_tz	hip_flexion_r	hip_adduction_r	hip_rotation_r	knee_angle_r	knee_rotation_r	knee_adduction_r	knee_angle_r_beta	ankle_angle_r	subtalar_angle_r	mtp_angle_r	hip_flexion_l	hip_adduction_l	hip_rotation_l	knee_angle_l	knee_rotation_l	knee_adduction_l	knee_angle_l_beta	ankle_angle_l	subtalar_angle_l	mtp_angle_l
      5.24500000	     10.06492673	    -25.06803316	      5.23520570	     -0.04009439	      0.67753454	     -1.18556932	     81.22512221	    -41.71510443	     -0.86138112	     73.41430755	      0.00000000	      8.24934936	      1.28132138	      9.46571943	      0.00000000	      0.00000000	     82.34685802	    -18.74734699	      3.77088720	     69.70714818	      0.00000000	     -9.45733028	      1.21661925	      9.79227312	      0.00000000	      0.00000000
      5.25000000	     10.10892044	    -25.07176299	      5.24665061	     -0.03958000	      0.67769037	     -1.18562839	     81.16306537	    -41.88799833	     -1.07774672	     73.46506257	      0.00000000	      8.84894548	      1.28220723	      9.71118916	      0.00000000	      0.00000000	     82.32870122	    -18.81928496	      3.62494146	     69.71584409	      0.00000000	     -9.70239496	      1.21677102	      9.84748158	      0.00000000	      0.00000000
      5.25500000	     10.06630918	    -25.05788278	      5.19905091	     -0.03922076	      0.67800461	     -1.18551916	     81.04773443	    -41.82270363	     -1.14098957	     73.42241537	      0.00000000	      8.84120093	      1.28146289	      9.67954485	      0.00000000	      0.00000000	     82.25911239	    -18.87970056	      3.63010443	     69.67106244	      0.00000000	     -9.70572863	      1.21598943	      9.84144470	      0.00000000	      0.00000000
      5.26000000	     10.08710525	    -25.02077267	      5.28180531	     -0.03885026	      0.67828312	     -1.18557058	     81.01279247	    -41.86583067	     -1.08172105	     73.39742525	      0.00000000	      8.85302372	      1.28102673	      9.73357913	      0.00000000	      0.00000000	     82.12033105	    -18.85683289	      3.51559703	     69.60933990	      0.00000000	     -9.70514418	      1.21491217	      9.85325046	      0.00000000	      0.00000000
      5.26500000	     10.03391218	    -25.05062726	      5.16651906	     -0.03874099	      0.67866484	     -1.18536513	     80.84906347	    -41.64575420	     -1.09020803	     73.24826542	      0.00000000	      8.28327405	      1.27842340	      9.59951782	      0.00000000	      0.00000000	     82.11784013	    -18.84540420	      3.71855676	     69.54347124	      0.00000000	     -9.47065069	      1.21376255	      9.80608788	      0.00000000	      0.00000000
      5.27000000	     10.09220272	    -24.96334522	      5.22790676	     -0.03814305	      0.67893099	     -1.18545725	     80.72545760	    -41.85210382	     -1.25562030	     73.28937305	      0.00000000	      8.84989971	      1.27914087	      9.69319825	      0.00000000	      0.00000000	     81.95245763	    -18.88290489	      3.52185080	     69.50276315	      0.00000000	     -9.70958020	      1.21305206	      9.86741341	      0.00000000	      0.00000000
      5.27500000	      9.99144151	    -25.06564870	      5.13425417	     -0.03818657	      0.67922533	     -1.18518216	     80.72925788	    -41.56240615	     -1.13050484	     73.19213904	      0.00000000	      8.26331603	      1.27744381	      9.61215416	      0.00000000	      0.00000000	     82.01241937	    -18.91309356	      3.69070984	     69.43284322	      0.00000000	     -9.47357268	      1.21183172	      9.79504375	      0.00000000	      0.00000000
      5.28000000	     10.22252304	    -24.85482119	      5.25875667	     -0.03737528	      0.67957866	     -1.18552281	     80.39494938	    -42.01301909	     -1.45941748	     73.17863878	      0.00000000	      8.87994824	      1.27720819	      9.73605915	      0.00000000	      0.00000000	     81.72564511	    -18.76839105	      3.50334034	     69.38161170	      0.00000000	     -9.70935186	      1.21093756	      9.87118719	      0.00000000	      0.00000000
      5.28500000	     10.01685058	    -25.02319426	      5.17309622	     -0.03760074	      0.67978840	     -1.18515175	     80.57072848	    -41.58940430	     -1.17580519	     73.11105855	      0.00000000	      8.27482044	      1.27602869	      9.62484817	      0.00000000	      0.00000000	     81.84060011	    -18.90170999	      3.60982313	     69.32679939	      0.00000000	     -9.47656436	      1.20998091	      9.79969333	      0.00000000	      0.00000000
      5.29000000	     10.23945432	    -24.80674282	      5.22966546	     -0.03677020	      0.68019750	     -1.18543616	     80.14365050	    -42.01596111	     -1.61454302	     73.07688333	      0.00000000	      8.88576768	      1.27543222	      9.72505101	      0.00000000	      0.00000000	     81.56978848	    -18.77278854	      3.49484044	     69.27270387	      0.00000000	     -9.71064368	      1.20903676	      9.86354930	      0.00000000	      0.00000000
